<svg xmlns="http://www.w3.org/2000/svg" xmlns:xlink="http://www.w3.org/1999/xlink" viewBox="0 0 48 48" id="colorpicker"><defs><linearGradient id="b" x1="22" x2="36.85" y1="40.04" y2="40.04" gradientUnits="userSpaceOnUse"><stop offset="0" stop-color="#ab61fe" class="stopColorfe9661 svgShape"></stop><stop offset="1" stop-color="#d269ff" class="stopColorffb369 svgShape"></stop></linearGradient><linearGradient id="a" x1="7.96" x2="7.96" y1="26" y2="11.15" gradientUnits="userSpaceOnUse"><stop offset="0" stop-color="#54d1ff" class="stopColor54a5ff svgShape"></stop><stop offset="1" stop-color="#8adffe" class="stopColor8ad3fe svgShape"></stop></linearGradient><linearGradient id="c" x1="21.63" x2="32.4" y1="29.85" y2="13.89" xlink:href="#a"></linearGradient><linearGradient id="d" x1="38.5" x2="45.55" y1="9.5" y2="2.45" xlink:href="#b"></linearGradient><linearGradient id="e" x1="35" x2="39" y1="13" y2="9" gradientTransform="rotate(45 37.001 11.006)" xlink:href="#b"></linearGradient><linearGradient id="f" x1="25" x2="19" y1="36" y2="36" xlink:href="#b"></linearGradient></defs><g fill="#000000" class="color000000 svgShape"><path fill="#ab61fe" d="M43,26a20.93,20.93,0,0,1-6.15,14.85l-7.78-7.78A10,10,0,0,0,32,26Z" class="colorfe9661 svgShape"></path><path fill="#8f66bd" d="M43,26H32a10,10,0,0,0-2.93-7.07l7.78-7.78A20.93,20.93,0,0,1,43,26Z" class="coloreb7f58 svgShape"></path><path fill="#da87fd" d="M22,36V47A20.93,20.93,0,0,1,7.15,40.85l7.78-7.78A10,10,0,0,0,22,36Z" class="colorffb369 svgShape"></path><path fill="url(#b)" d="M36.85,40.85A20.93,20.93,0,0,1,22,47V36a10,10,0,0,0,7.07-2.93Z"></path><path fill="#87ddfd" d="M14.93,33.07,7.15,40.85A20.93,20.93,0,0,1,1,26H12A10,10,0,0,0,14.93,33.07Z" class="color8ad3fe svgShape"></path><path fill="url(#a)" d="M14.93,18.93A10,10,0,0,0,12,26H1A20.93,20.93,0,0,1,7.15,11.15Z"></path><path fill="#54d1ff" d="M22,5V16a10,10,0,0,0-7.07,2.93L7.15,11.15A20.93,20.93,0,0,1,22,5Z" class="color54a5ff svgShape"></path><path fill="#767fad" d="M36.85,11.15l-7.78,7.78A10,10,0,0,0,22,16V5A20.93,20.93,0,0,1,36.85,11.15Z" class="color4795ea svgShape"></path><rect width="9.9" height="8.49" x="26.55" y="12.26" fill="#d7eef7" transform="rotate(-45 31.505 16.5)" class="colord7e9f7 svgShape"></rect><path fill="url(#c)" d="M21,21a4.25,4.25,0,0,0-1,4.29A2,2,0,1,0,22.71,28,4.23,4.23,0,0,0,27,27L37,17l-1.66.33a16.49,16.49,0,0,1-6.68,0A17.59,17.59,0,0,0,25,17Z"></path><path fill="url(#d)" d="M47,6a5,5,0,0,1-1.45,3.5L42,13,35,6l3.55-3.55A5,5,0,0,1,47,6Z"></path><rect width="5.66" height="14.14" x="34.17" y="3.93" fill="url(#e)" rx="1" transform="rotate(-45 36.995 10.996)"></rect><circle cx="22" cy="36" r="5" fill="#f0f9fc" class="colorf0f7fc svgShape"></circle><circle cx="22" cy="36" r="3" fill="url(#f)"></circle></g></svg>