<svg xmlns="http://www.w3.org/2000/svg" xmlns:xlink="http://www.w3.org/1999/xlink" viewBox="0 0 64 64" id="PenAndRuler"><defs><linearGradient id="c" x1="15.435" x2="51.864" y1="21.634" y2="49.491" gradientUnits="userSpaceOnUse"><stop offset="0" stop-color="#dc8cfe" class="stopColorfed18c svgShape"></stop><stop offset=".334" stop-color="#d480f7" class="stopColorf7c880 svgShape"></stop><stop offset=".935" stop-color="#6177e6" class="stopColore6b061 svgShape"></stop><stop offset="1" stop-color="#767fad" class="stopColore4ad5d svgShape"></stop></linearGradient><linearGradient id="d" x1="29.5" x2="29.5" y1="13" y2="55" gradientUnits="userSpaceOnUse"><stop offset="0" stop-color="#767fad" class="stopColore4ad5d svgShape"></stop><stop offset=".065" stop-color="#6177e6" class="stopColore6b061 svgShape"></stop><stop offset=".666" stop-color="#d480f7" class="stopColorf7c880 svgShape"></stop><stop offset="1" stop-color="#dc8cfe" class="stopColorfed18c svgShape"></stop></linearGradient><linearGradient id="a" x1="6" x2="6" y1="1" y2="9" gradientUnits="userSpaceOnUse"><stop offset="0" stop-color="#a9e2f7" class="stopColora9d1f7 svgShape"></stop><stop offset="1" stop-color="#7ec1da" class="stopColor7eaada svgShape"></stop></linearGradient><linearGradient id="e" x1="44.48" x2="44.48" y2="7" xlink:href="#a"></linearGradient><linearGradient id="f" x1="18.48" x2="18.48" y1="5" y2="11" xlink:href="#a"></linearGradient><linearGradient id="b" x1="59" x2="59" y1="15" y2="21" gradientUnits="userSpaceOnUse"><stop offset="0" stop-color="#da87fd" class="stopColorff9385 svgShape"></stop><stop offset=".233" stop-color="#ba82f8" class="stopColorf88b82 svgShape"></stop><stop offset=".593" stop-color="#aa75e5" class="stopColore57579 svgShape"></stop><stop offset="1" stop-color="#8f66bd" class="stopColorc8556b svgShape"></stop></linearGradient><linearGradient id="g" x1="59" x2="59" y1="2" y2="8" xlink:href="#b"></linearGradient><linearGradient id="h" x1="14" x2="14" y1="3" y2="5" xlink:href="#b"></linearGradient><linearGradient id="i" x1="3" x2="3" y1="23" y2="25" xlink:href="#b"></linearGradient><linearGradient id="j" x1="52" x2="52" y1="9" y2="11" xlink:href="#a"></linearGradient><linearGradient id="k" x1="13" x2="13" y1="12" y2="19" xlink:href="#a"></linearGradient><linearGradient id="l" x1="13" x2="13" y1="22" y2="54" xlink:href="#a"></linearGradient><linearGradient id="m" x1="13" x2="13" y1="54" y2="60.226" xlink:href="#b"></linearGradient><linearGradient id="n" x1="13" x2="13" y1="19" y2="22" xlink:href="#b"></linearGradient></defs><g fill="#000000" class="color000000 svgShape"><path fill="url(#c)" d="M36,10.09V8a2,2,0,0,0-2-2H27a2,2,0,0,0-2,2V60a2,2,0,0,0,2,2h7a2,2,0,0,0,2-2V57.91a23.9929,23.9929,0,0,0,0-47.82Zm0,36.7405V21.17a12.9828,12.9828,0,0,1,0,25.661Z"></path><path fill="url(#d)" d="M32,15H27a1,1,0,0,1,0-2h5a1,1,0,0,1,0,2Zm1,19a1,1,0,0,0-1-1H27a1,1,0,0,0,0,2h5A1,1,0,0,0,33,34ZM30,19a1,1,0,0,0-1-1H27a1,1,0,0,0,0,2h2A1,1,0,0,0,30,19Zm0,10a1,1,0,0,0-1-1H27a1,1,0,0,0,0,2h2A1,1,0,0,0,30,29Zm1-5a1,1,0,0,0-1-1H27a1,1,0,0,0,0,2h3A1,1,0,0,0,31,24Zm2,30a1,1,0,0,0-1-1H27a1,1,0,0,0,0,2h5A1,1,0,0,0,33,54ZM30,39a1,1,0,0,0-1-1H27a1,1,0,0,0,0,2h2A1,1,0,0,0,30,39Zm0,10a1,1,0,0,0-1-1H27a1,1,0,0,0,0,2h2A1,1,0,0,0,30,49Zm1-5a1,1,0,0,0-1-1H27a1,1,0,0,0,0,2h3A1,1,0,0,0,31,44Z"></path><path fill="url(#a)" d="M7.63,6.3577l2.0555-.8809a.5187.5187,0,0,0,0-.9536L7.63,3.6423A.519.519,0,0,1,7.3577,3.37L6.4768,1.3144a.5187.5187,0,0,0-.9536,0L4.6423,3.37a.519.519,0,0,1-.2724.2724l-2.0555.8809a.5187.5187,0,0,0,0,.9536L4.37,6.3577a.519.519,0,0,1,.2724.2724l.8809,2.0555a.5187.5187,0,0,0,.9536,0L7.3577,6.63A.519.519,0,0,1,7.63,6.3577Z"></path><path fill="url(#e)" d="M45.7026,5.0183l1.5416-.6607a.3891.3891,0,0,0,0-.7152l-1.5416-.6607a.3887.3887,0,0,1-.2043-.2043l-.6607-1.5416a.3891.3891,0,0,0-.7152,0l-.6606,1.5416a.3892.3892,0,0,1-.2044.2043l-1.5416.6607a.3891.3891,0,0,0,0,.7152l1.5416.6607a.3892.3892,0,0,1,.2044.2043l.6606,1.5416a.3891.3891,0,0,0,.7152,0l.6607-1.5416A.3887.3887,0,0,1,45.7026,5.0183Z"></path><path fill="url(#f)" d="M19.7026,9.0183l1.5416-.6607a.3891.3891,0,0,0,0-.7152l-1.5416-.6607a.3887.3887,0,0,1-.2043-.2043l-.6607-1.5416a.3891.3891,0,0,0-.7152,0l-.6606,1.5416a.3892.3892,0,0,1-.2044.2043l-1.5416.6607a.3891.3891,0,0,0,0,.7152l1.5416.6607a.3892.3892,0,0,1,.2044.2043l.6606,1.5416a.3891.3891,0,0,0,.7152,0l.6607-1.5416A.3887.3887,0,0,1,19.7026,9.0183Z"></path><path fill="url(#b)" d="M60.2226,19.0183l1.5416-.6607a.3891.3891,0,0,0,0-.7152l-1.5416-.6607a.3887.3887,0,0,1-.2043-.2043l-.6607-1.5416a.3891.3891,0,0,0-.7152,0l-.6607,1.5416a.3887.3887,0,0,1-.2043.2043l-1.5416.6607a.3891.3891,0,0,0,0,.7152l1.5416.6607a.3887.3887,0,0,1,.2043.2043l.6607,1.5416a.3891.3891,0,0,0,.7152,0l.6607-1.5416A.3887.3887,0,0,1,60.2226,19.0183Z"></path><path fill="url(#g)" d="M60.2226,6.0183l1.5416-.6607a.3891.3891,0,0,0,0-.7152l-1.5416-.6607a.3887.3887,0,0,1-.2043-.2043l-.6607-1.5416a.3891.3891,0,0,0-.7152,0l-.6607,1.5416a.3887.3887,0,0,1-.2043.2043l-1.5416.6607a.3891.3891,0,0,0,0,.7152l1.5416.6607a.3887.3887,0,0,1,.2043.2043l.6607,1.5416a.3891.3891,0,0,0,.7152,0l.6607-1.5416A.3887.3887,0,0,1,60.2226,6.0183Z"></path><circle cx="14" cy="4" r="1" fill="url(#h)"></circle><circle cx="3" cy="24" r="1" fill="url(#i)"></circle><circle cx="52" cy="10" r="1" fill="url(#j)"></circle><path fill="url(#k)" d="M13,12h0a5,5,0,0,1,5,5v2a0,0,0,0,1,0,0H8a0,0,0,0,1,0,0V17A5,5,0,0,1,13,12Z"></path><rect width="10" height="32" x="8" y="22" fill="url(#l)"></rect><path fill="#87ddfd" d="M10.5,32a.5.5,0,0,1-.5-.5v-6a.5.5,0,0,1,1,0v6A.5.5,0,0,1,10.5,32Zm.5,2.5v-1a.5.5,0,0,0-1,0v1a.5.5,0,0,0,1,0Z" class="colora9d1f7 svgShape"></path><path fill="url(#m)" d="M11.304,59.2864,8,54H18l-3.304,5.2864A2,2,0,0,1,11.304,59.2864Z"></path><rect width="14" height="3" x="6" y="19" fill="url(#n)" rx="1.5"></rect></g></svg>