<svg xmlns="http://www.w3.org/2000/svg" enable-background="new 0 0 512 512" viewBox="0 0 512 512" id="portableconsole"><linearGradient id="a" x1="59.022" x2="481.863" y1="467.421" y2="44.579" gradientUnits="userSpaceOnUse"><stop offset="0" stop-color="#87ddfd" class="stopColorffae46 svgShape"></stop><stop offset=".19" stop-color="#8798fd" class="stopColorff9755 svgShape"></stop><stop offset=".739" stop-color="#4db3db" class="stopColorff5a7d svgShape"></stop><stop offset="1" stop-color="#d487fd" class="stopColorff428d svgShape"></stop></linearGradient><path fill="url(#a)" d="M138.616,59.767h263.636v152.448H138.616V59.767z M386.155,289.608c-8.875,0-16.098,7.222-16.098,16.098s7.222,16.098,16.098,16.098s16.098-7.222,16.098-16.098S395.03,289.608,386.155,289.608z M462.051,42.222v427.555c0,23.273-18.949,42.222-42.222,42.222H121.055c-23.272,0-42.222-18.949-42.222-42.222V226.012H66.599c-9.199,0-16.65-7.451-16.65-16.65v-41.394c0-9.199,7.451-16.742,16.65-16.742h12.234v-30.448H66.599c-9.199,0-16.65-7.451-16.65-16.65V62.735c0-9.291,7.451-16.742,16.65-16.742h12.234v-3.772C78.833,18.95,97.783,0,121.055,0h298.774C443.102,0,462.051,18.95,462.051,42.222z M200.892,402.382c8.013,0,14.535-6.517,14.535-14.53v-21.344h21.339c8.067,0,14.629-6.562,14.629-14.625v-25.575c0-8.062-6.562-14.625-14.629-14.625h-21.339v-21.339c0-8.013-6.522-14.535-14.535-14.535h-25.665c-8.013,0-14.535,6.522-14.535,14.535v21.339h-21.339c-8.013,0-14.535,6.562-14.535,14.625v25.575c0,8.062,6.522,14.625,14.535,14.625h21.339v21.344c0,8.013,6.522,14.53,14.535,14.53H200.892z M254.4,459.079c0-3.809-3.09-6.899-6.899-6.899h-30.327c-3.809,0-6.899,3.09-6.899,6.899c0,3.809,3.09,6.899,6.899,6.899h30.327C251.309,465.978,254.4,462.888,254.4,459.079z M330.599,459.079c0-3.809-3.09-6.899-6.899-6.899h-30.322c-3.809,0-6.899,3.09-6.899,6.899c0,3.809,3.09,6.899,6.899,6.899H323.7C327.509,465.978,330.599,462.888,330.599,459.079z M354.642,372.486c0-16.484-13.412-29.896-29.896-29.896s-29.896,13.412-29.896,29.896c0,16.484,13.412,29.896,29.896,29.896S354.642,388.97,354.642,372.486z M416.051,305.706c0-16.484-13.412-29.896-29.896-29.896c-16.484,0-29.896,13.412-29.896,29.896s13.412,29.896,29.896,29.896C402.639,335.602,416.051,322.19,416.051,305.706z M416.051,52.868c0-3.809-3.09-6.899-6.899-6.899H131.717c-3.809,0-6.899,3.09-6.899,6.899v166.246c0,3.809,3.09,6.899,6.899,6.899h277.434c3.809,0,6.899-3.09,6.899-6.899V52.868z M324.746,356.389c-8.875,0-16.098,7.222-16.098,16.098c0,8.875,7.222,16.098,16.098,16.098s16.098-7.222,16.098-16.098C340.844,363.611,333.622,356.389,324.746,356.389z M237.597,351.884v-25.575c0-0.418-0.413-0.826-0.831-0.826h-28.238c-3.809,0-6.899-3.09-6.899-6.899v-28.238c0-0.422-0.319-0.737-0.737-0.737h-25.665c-0.418,0-0.737,0.314-0.737,0.737v28.238c0,3.809-3.09,6.899-6.899,6.899h-28.238c-0.391,0-0.737,0.386-0.737,0.826v25.575c0,0.44,0.346,0.826,0.737,0.826h28.238c3.809,0,6.899,3.09,6.899,6.899v28.243c0,0.418,0.319,0.732,0.737,0.732h25.665c0.418,0,0.737-0.314,0.737-0.732v-28.243c0-3.809,3.09-6.899,6.899-6.899h28.238C237.183,352.71,237.597,352.301,237.597,351.884z"></path></svg>