<svg xmlns="http://www.w3.org/2000/svg" xmlns:xlink="http://www.w3.org/1999/xlink" viewBox="0 0 25 25" id="Scissors"><defs><linearGradient id="a"><stop offset="0" stop-color="#b661ff" class="stopColor24f7bc svgShape"></stop><stop offset="1" stop-color="#87e6fd" class="stopColor24c4fc svgShape"></stop></linearGradient><linearGradient id="b" x1="949.87" x2="974.39" y1="518.014" y2="544.657" gradientTransform="translate(-761.471 618.335) scale(.80097)" gradientUnits="userSpaceOnUse" xlink:href="#a"></linearGradient></defs><g fill="#ffffff" transform="translate(4.984 -1031.386)" class="colorffffff svgShape"><rect width="25" height="25" x="-3.996" y="1031.366" fill="url(#b)" rx="5.283" ry="5.283" transform="translate(-.988 .02)"></rect><path style="line-height:normal;text-indent:0;text-align:start;text-decoration-line:none;text-decoration-style:solid;text-decoration-color:#000;text-transform:none;block-progression:tb;isolation:auto;mix-blend-mode:normal" d="M13.008 3.023c-1.099 0-2 .902-2 2 0 .22.045.426.111.623L8.746 7.012l-2.754-2.95-5.969-.058v.002l6.97 4.017L.03 12.031h5.914l2.803-2.998 2.37 1.367c-.066.197-.11.405-.11.623 0 1.099.901 2 2 2 1.098 0 2-.901 2-2 0-1.098-.902-2-2-2-.52 0-.991.207-1.348.536L9.021 8.037l-.013-.014.021-.02L11.66 6.49c.357.328.829.533 1.348.533 1.098 0 2-.901 2-2 0-1.098-.902-2-2-2zm0 1c.558 0 1 .442 1 1 0 .559-.442 1-1 1s-1-.441-1-1c0-.558.442-1 1-1zM3.822 5.041l1.733.018 1.982 2.123L3.822 5.04Zm3.719 3.82-2.03 2.17h-1.74l3.77-2.17zm5.467 1.162c.558 0 1 .442 1 1 0 .559-.442 1-1 1s-1-.441-1-1c0-.558.442-1 1-1z" color="#000" font-family="sans-serif" font-weight="400" overflow="visible" transform="translate(0 1036.362)" fill="#740765" class="color000000 svgShape"></path></g></svg>